<svg version="1.1" id="Layer_1" xmlns="http://www.w3.org/2000/svg" xmlns:xlink="http://www.w3.org/1999/xlink" x="0px" y="0px"
	 width="100%" viewBox="0 0 736 736" enable-background="new 0 0 736 736" xml:space="preserve">
<path fill="#000000" opacity="1.000000" stroke="none" 
	d="
M352.000000,737.000000 
	C234.666672,737.000000 117.833336,737.000000 1.000000,737.000000 
	C1.000000,491.666656 1.000000,246.333328 1.000000,1.000000 
	C246.333328,1.000000 491.666656,1.000000 737.000000,1.000000 
	C737.000000,246.333328 737.000000,491.666656 737.000000,737.000000 
	C608.833313,737.000000 480.666656,737.000000 352.000000,737.000000 
M439.967651,434.031097 
	C439.967651,434.031097 439.871277,434.031128 440.032623,434.572998 
	C440.348236,434.755707 440.663818,434.938416 441.009369,434.967285 
	C441.009369,434.967285 440.855652,434.936890 441.012726,435.873749 
	C441.067627,450.923309 441.122528,465.972870 441.027771,481.946320 
	C441.027771,505.289215 441.027771,528.632141 441.027771,551.975037 
	C441.548767,552.083191 442.069794,552.191345 442.590790,552.299561 
	C443.142059,551.115234 443.693298,549.930969 444.802277,548.414246 
	C448.473236,542.495911 452.116791,536.560425 455.820435,530.662659 
	C465.204529,515.719421 474.626953,500.800171 484.011688,485.857361 
	C489.797302,476.645203 495.548157,467.411194 501.303558,458.180115 
	C508.943268,445.926819 516.542969,433.648499 524.212891,421.414185 
	C534.037781,405.742432 543.915527,390.103760 554.563171,373.995026 
	C556.269531,369.171783 552.287659,371.076324 550.722229,371.074249 
	C482.534393,370.984344 414.346405,370.999634 346.158417,371.002167 
	C344.934631,371.002197 343.710876,371.002167 342.487091,371.002167 
	C342.409851,371.357147 342.332642,371.712158 342.255402,372.067139 
	C343.578308,372.799438 344.901184,373.531769 346.553619,374.820618 
	C365.057678,386.538910 383.540314,398.291290 402.073425,409.963531 
	C414.308929,417.669556 426.616974,425.260437 438.997467,433.495544 
	C439.320618,433.706177 439.643768,433.916840 439.967651,434.031097 
M241.951874,494.046112 
	C241.951874,494.046112 241.877930,494.045593 242.037903,494.574432 
	C242.344467,494.758179 242.651031,494.941925 242.957703,495.043457 
	C242.957703,495.043457 242.875504,495.044434 243.029129,495.577789 
	C243.337677,495.759735 243.646225,495.941711 243.955276,496.044830 
	C243.955276,496.044830 243.876465,496.045441 244.030869,496.580322 
	C244.340836,496.762451 244.650787,496.944580 244.961914,497.036041 
	C244.961914,497.036041 244.871231,497.035767 245.038757,497.569733 
	C245.349533,497.755554 245.660309,497.941376 245.970612,498.031525 
	C245.970612,498.031525 245.874969,498.032745 246.028000,498.573273 
	C246.340271,498.757355 246.652542,498.941437 246.965469,499.033997 
	C246.965469,499.033997 246.873962,499.034180 247.031525,499.572601 
	C247.343384,499.756958 247.655228,499.941345 247.967468,500.032562 
	C247.967468,500.032562 247.874359,500.033020 248.031158,500.572021 
	C248.343109,500.756531 248.655075,500.941071 248.967453,501.032501 
	C248.967453,501.032501 248.874374,501.032867 249.029037,501.569336 
	C249.338364,501.754364 249.647675,501.939423 249.957581,502.042267 
	C249.957581,502.042267 249.875397,502.042725 250.032318,502.575592 
	C250.340881,502.758759 250.649445,502.941956 250.959045,503.039124 
	C250.959045,503.039124 250.873001,503.039001 251.040558,503.566589 
	C251.346848,503.752747 251.653137,503.938904 251.958420,504.044861 
	C251.958420,504.044861 251.878204,504.046875 252.015396,504.583527 
	C252.324005,504.760773 252.632614,504.937988 252.994339,505.020264 
	C252.994339,505.020264 252.920029,505.099548 253.130630,505.738007 
	C254.093018,506.184570 255.055420,506.631134 256.084839,506.947479 
	C256.084839,506.947479 255.955414,506.878967 256.140747,507.381531 
	C256.659058,507.834991 257.177399,508.288452 258.379608,508.992828 
	C263.510101,512.954529 268.640564,516.916260 274.039612,521.553162 
	C275.803741,522.970886 277.401459,524.697815 279.361023,525.752380 
	C287.531616,530.149414 295.683716,534.620544 304.102692,538.500061 
	C308.506561,540.529358 313.449371,541.389160 318.906799,542.956055 
	C325.241455,544.628662 331.576080,546.301270 338.236542,548.732788 
	C339.371552,548.883728 340.506317,549.036621 341.641632,549.185303 
	C351.436279,550.468079 361.219269,551.863342 371.041382,552.880615 
	C372.196045,553.000366 373.566101,551.040466 374.998077,549.111389 
	C374.998077,529.858826 374.998077,510.606201 374.998077,491.248047 
	C371.836151,491.248047 369.055206,491.248047 365.451843,490.920837 
	C364.038727,490.628174 362.627747,490.092346 361.212219,490.080170 
	C345.786285,489.947418 331.662964,484.499878 318.513397,477.529449 
	C303.373901,469.504211 290.215973,458.569244 279.785950,444.495728 
	C268.212097,428.878784 260.072021,412.020966 257.793610,391.808899 
	C257.547394,388.427246 257.063263,385.043060 257.099365,381.664429 
	C257.209290,371.384308 257.519989,361.106323 257.942322,349.907806 
	C259.066132,338.085144 263.349121,327.190887 268.679993,316.823792 
	C276.774780,301.081665 287.996765,287.930725 302.231110,277.094910 
	C319.889435,263.652679 339.452423,255.775482 362.314606,253.826004 
	C372.486572,254.121185 382.658569,254.416367 393.694824,254.888840 
	C399.686310,256.208282 405.677826,257.527710 412.038055,259.555298 
	C415.361450,260.749146 418.684845,261.942963 421.998444,263.027954 
	C421.998444,263.027954 421.889648,263.038147 422.113647,263.659149 
	C422.740967,263.818970 423.368286,263.978790 423.986267,264.049774 
	C423.986267,264.049774 423.897522,264.059937 424.198120,264.733093 
	C426.479858,265.515381 428.761627,266.297668 431.131073,267.017731 
	C431.131073,267.017731 431.070709,266.928711 431.172180,267.348724 
	C431.172180,267.348724 431.475647,267.685699 431.475647,267.685699 
	C431.475647,267.685699 431.925354,267.612122 432.553528,268.001251 
	C448.944000,277.509888 462.795959,289.756866 472.949524,305.882416 
	C474.829529,308.868164 476.998413,310.186462 480.562073,310.032318 
	C492.304688,309.524475 504.057526,309.252960 516.179688,309.725769 
	C524.719299,309.725769 533.258850,309.725769 543.123657,309.725769 
	C541.606384,306.051239 540.333252,302.967834 539.034973,299.142151 
	C535.423645,292.837372 531.812317,286.532593 527.950745,279.456055 
	C527.869141,279.198212 527.787476,278.940399 527.395203,278.185699 
	C526.613770,277.148560 525.832275,276.111450 524.944641,274.453461 
	C524.880554,274.253540 524.816467,274.053589 524.678223,273.351410 
	C524.167297,272.938049 523.656372,272.524689 522.885376,271.442749 
	C521.613586,269.749664 520.236206,268.125031 519.086182,266.352905 
	C507.471771,248.455322 491.447754,235.007309 474.316467,222.891144 
	C460.742462,213.290863 445.649536,206.435135 429.930237,200.593231 
	C422.013184,197.800232 414.323120,193.966187 404.663483,194.990387 
	C400.695221,194.406433 396.726929,193.822464 391.917450,193.135880 
	C390.054291,192.746628 388.172363,191.948822 386.330933,192.033279 
	C372.548157,192.665375 358.610260,190.385468 344.149780,193.988174 
	C337.648499,195.713272 331.147186,197.438385 323.923889,199.096390 
	C313.076935,203.708313 302.122070,208.084152 291.405579,212.981613 
	C269.472595,223.005035 251.929184,238.754547 236.077057,256.529266 
	C233.209930,259.744171 231.177658,263.703613 228.494690,267.222260 
	C228.494690,267.222260 228.243973,267.043945 228.243973,267.043945 
	C228.243973,267.043945 228.489288,266.839996 228.116837,267.432526 
	C228.046661,267.654968 227.976471,267.877441 227.428223,268.245453 
	C227.036713,268.762573 226.645203,269.279694 226.044739,270.479279 
	C225.970154,270.705200 225.895584,270.931152 225.275925,271.393494 
	C224.622482,272.626526 223.969040,273.859589 222.974213,275.658173 
	C222.875854,275.855133 222.777481,276.052124 222.225174,276.508911 
	C221.660019,277.716797 221.094879,278.924683 220.045807,280.615662 
	C219.932098,280.813202 219.818375,281.010712 219.189499,281.502167 
	C218.320740,283.395996 217.451996,285.289795 216.045502,287.634064 
	C215.921967,287.832581 215.798431,288.031128 215.161713,288.588257 
	C214.227600,290.877625 213.293488,293.167023 211.999283,295.723846 
	C211.999283,295.723846 211.871216,296.153687 211.247223,296.439697 
	C210.291397,299.081238 209.335571,301.722748 207.922058,304.827576 
	C207.811554,305.014435 207.701065,305.201263 207.260483,305.933319 
	C204.463699,314.959412 201.666916,323.985535 198.965042,332.997803 
	C198.965042,332.997803 198.950668,332.902985 198.337585,333.085114 
	C198.614517,333.533783 198.891464,333.982483 198.854034,334.783813 
	C198.854034,334.783813 198.691132,335.227264 198.481140,335.246765 
	C198.284027,335.369843 198.222031,335.534363 198.090591,336.716553 
	C197.404083,340.728027 196.293625,344.720245 196.110580,348.754547 
	C195.562683,360.830170 194.744003,372.949219 195.256134,384.999237 
	C195.648773,394.237640 197.899460,403.397064 199.199051,413.300568 
	C199.454712,414.698975 199.524292,416.163910 199.996399,417.484955 
	C202.935120,425.708405 205.963989,433.899597 208.975281,441.998016 
	C208.975281,441.998016 208.871796,441.986053 209.000977,442.632782 
	C209.331970,443.118439 209.662964,443.604095 210.011444,443.982391 
	C210.011444,443.982391 209.904099,443.964539 210.013000,444.748352 
	C213.040192,450.531494 216.067398,456.314667 219.322845,462.744720 
	C225.624588,471.414215 231.926315,480.083710 238.004990,489.447327 
	C238.967712,490.655823 239.930435,491.864349 240.991913,493.002533 
	C240.991913,493.002533 240.884552,493.059204 241.022064,493.594513 
	C241.331436,493.769684 241.640823,493.944855 241.951874,494.046112 
z"/>
<path fill="#04A9DE" opacity="1.000000" stroke="none" 
	d="
M337.910736,547.973877 
	C331.576080,546.301270 325.241455,544.628662 318.337677,542.577393 
	C304.006500,535.408020 290.247192,528.611694 276.475769,521.839966 
	C275.622772,521.420532 274.674805,521.194153 273.771027,520.877991 
	C268.640564,516.916260 263.510101,512.954529 257.817871,508.732147 
	C256.822571,507.940643 256.388977,507.409821 255.955414,506.878967 
	C255.955414,506.878967 256.084839,506.947479 255.985413,506.634888 
	C254.897339,505.914734 253.908691,505.507141 252.920029,505.099548 
	C252.920029,505.099548 252.994339,505.020264 253.116364,504.686279 
	C252.785004,504.250458 252.331604,504.148651 251.878204,504.046875 
	C251.878204,504.046875 251.958420,504.044861 252.055878,503.714905 
	C251.726562,503.269623 251.299774,503.154297 250.873001,503.039001 
	C250.873001,503.039001 250.959045,503.039124 251.070251,502.706085 
	C250.746109,502.262939 250.310760,502.152832 249.875397,502.042725 
	C249.875397,502.042725 249.957581,502.042267 250.068298,501.716003 
	C249.744141,501.270813 249.309250,501.151825 248.874374,501.032867 
	C248.874374,501.032867 248.967453,501.032501 249.050995,500.713745 
	C248.714478,500.274323 248.294418,500.153656 247.874359,500.033020 
	C247.874359,500.033020 247.967468,500.032562 248.050735,499.713623 
	C247.713989,499.274536 247.293976,499.154358 246.873962,499.034180 
	C246.873962,499.034180 246.965469,499.033997 247.054443,498.713318 
	C246.720612,498.272644 246.297791,498.152710 245.874969,498.032745 
	C245.874969,498.032745 245.970612,498.031525 246.040955,497.715454 
	C245.697937,497.278168 245.284592,497.156952 244.871231,497.035767 
	C244.871231,497.035767 244.961914,497.036041 245.062439,496.704224 
	C244.734116,496.263428 244.305283,496.154449 243.876465,496.045471 
	C243.876465,496.045441 243.955276,496.044830 244.073334,495.706116 
	C243.752777,495.259766 243.314133,495.152100 242.875504,495.044434 
	C242.875504,495.044434 242.957703,495.043457 243.066132,494.709015 
	C242.742340,494.264923 242.310135,494.155273 241.877930,494.045593 
	C241.877930,494.045593 241.951874,494.046112 242.091766,493.695618 
	C241.782623,493.249847 241.333588,493.154510 240.884552,493.059204 
	C240.884552,493.059204 240.991913,493.002533 241.250031,492.799347 
	C240.414780,491.315186 239.321411,490.034210 238.228058,488.753204 
	C231.926315,480.083710 225.624588,471.414215 219.189590,462.039917 
	C216.005600,455.544922 212.954849,449.754730 209.904099,443.964539 
	C209.904099,443.964539 210.011444,443.982391 210.036255,443.692444 
	C209.664627,442.930389 209.268204,442.458221 208.871796,441.986053 
	C208.871796,441.986053 208.975281,441.998016 209.096252,441.661530 
	C206.815521,433.984924 204.448212,426.633240 201.991776,419.311493 
	C201.226334,417.029968 200.219894,414.829285 199.323792,412.591614 
	C197.899460,403.397064 195.648773,394.237640 195.256134,384.999237 
	C194.744003,372.949219 195.562683,360.830170 196.110580,348.754547 
	C196.293625,344.720245 197.404083,340.728027 198.264893,336.234497 
	C198.631210,335.677429 198.715195,335.502380 198.691132,335.227264 
	C198.691132,335.227264 198.854034,334.783813 199.073700,334.208313 
	C199.179138,333.389557 199.064911,333.146271 198.950668,332.902985 
	C198.950668,332.902985 198.965042,332.997803 199.259735,332.913879 
	C202.233139,323.682678 204.911865,314.535400 207.590591,305.388123 
	C207.701065,305.201263 207.811554,305.014435 208.110413,304.324005 
	C209.489578,301.264862 210.680389,298.709259 211.871216,296.153687 
	C211.871216,296.153687 211.999283,295.723846 212.048828,295.319122 
	C213.290543,292.686157 214.482712,290.457886 215.674896,288.229645 
	C215.798431,288.031128 215.921967,287.832581 216.008301,287.052917 
	C217.215607,284.717285 218.460129,282.962769 219.704651,281.208252 
	C219.818375,281.010712 219.932098,280.813202 220.024109,280.012299 
	C220.894638,278.355682 221.786865,277.302399 222.679092,276.249146 
	C222.777481,276.052124 222.875854,275.855133 223.257568,275.188629 
	C224.300964,273.531738 225.061005,272.344421 225.821030,271.157074 
	C225.895584,270.931152 225.970154,270.705200 226.334473,269.988037 
	C227.051559,269.031158 227.478912,268.565521 227.906281,268.099915 
	C227.976471,267.877441 228.046661,267.654968 228.299286,267.227661 
	C228.481735,267.022797 228.759933,267.319305 228.759933,267.319305 
	C231.177658,263.703613 233.209930,259.744171 236.077057,256.529266 
	C251.929184,238.754547 269.472595,223.005035 291.405579,212.981613 
	C302.122070,208.084152 313.076935,203.708313 324.630859,199.172272 
	C331.878876,197.805603 338.419922,196.363052 345.402802,194.948242 
	C348.463928,194.641541 351.077484,194.077896 353.703583,194.011383 
	C366.720123,193.681702 379.739990,193.483215 392.758667,193.238510 
	C396.726929,193.822464 400.695221,194.406433 405.410706,195.166672 
	C414.028168,197.366272 421.898407,199.389572 429.768677,201.412872 
	C445.649536,206.435135 460.742462,213.290863 474.316467,222.891144 
	C491.447754,235.007309 507.471771,248.455322 519.086182,266.352905 
	C520.236206,268.125031 521.613586,269.749664 523.147034,271.973511 
	C523.856567,272.954071 524.304504,273.403870 524.752380,273.853668 
	C524.816467,274.053589 524.880554,274.253540 525.106079,275.032959 
	C526.080322,276.635803 526.893066,277.659180 527.705872,278.682556 
	C527.787476,278.940399 527.869141,279.198212 528.283691,280.111481 
	C532.119324,287.944611 535.622009,295.122314 539.291504,302.816467 
	C539.620056,303.656525 539.781921,303.980133 539.881470,304.376526 
	C539.819153,304.449310 540.064270,304.685333 540.145508,305.068359 
	C541.490540,308.222809 540.208984,308.896149 537.617126,308.873840 
	C530.347473,308.811157 523.076782,308.876068 515.806458,308.890686 
	C504.057526,309.252960 492.304688,309.524475 480.562073,310.032318 
	C476.998413,310.186462 474.829529,308.868164 472.949524,305.882416 
	C462.795959,289.756866 448.944000,277.509888 431.910919,268.010742 
	C431.143646,267.916016 430.916168,267.813232 430.914642,267.707245 
	C430.910980,267.448517 431.011932,267.188324 431.070709,266.928711 
	C431.070709,266.928711 431.131073,267.017731 430.916748,266.731750 
	C428.434113,265.650482 426.165833,264.855225 423.897522,264.059937 
	C423.897522,264.059937 423.986267,264.049774 423.975647,263.716736 
	C423.273224,263.268555 422.581451,263.153351 421.889648,263.038147 
	C421.889648,263.038147 421.998444,263.027954 421.955688,262.720398 
	C418.498383,261.224274 415.083862,260.035706 411.669312,258.847137 
	C405.677826,257.527710 399.686310,256.208282 393.026062,254.550598 
	C385.059967,253.490952 377.774597,252.528732 370.459442,252.165543 
	C367.494568,252.018326 364.464813,253.176743 361.464600,253.741043 
	C339.452423,255.775482 319.889435,263.652679 302.231110,277.094910 
	C287.996765,287.930725 276.774780,301.081665 268.679993,316.823792 
	C263.349121,327.190887 259.066132,338.085144 257.627075,350.535126 
	C256.983612,351.727417 256.372925,352.290314 256.368744,352.857666 
	C256.277527,365.280701 256.224487,377.704346 256.283081,390.127319 
	C256.286926,390.947693 257.240265,391.763580 257.751953,392.581573 
	C260.072021,412.020966 268.212097,428.878784 279.785950,444.495728 
	C290.215973,458.569244 303.373901,469.504211 318.513397,477.529449 
	C331.662964,484.499878 345.786285,489.947418 361.212219,490.080170 
	C362.627747,490.092346 364.038727,490.628174 366.234192,490.969910 
	C369.110046,491.424988 371.203552,491.830994 374.075806,492.388031 
	C374.075806,511.611084 374.075806,530.812012 373.771057,550.291504 
	C369.005066,550.514343 364.523438,550.708374 360.087097,550.346741 
	C352.679749,549.742798 345.301331,548.783569 337.910736,547.973877 
z"/>
<path fill="#DE3C33" opacity="1.000000" stroke="none" 
	d="
M553.770447,374.450836 
	C543.915527,390.103760 534.037781,405.742432 524.212891,421.414185 
	C516.542969,433.648499 508.943268,445.926819 501.303558,458.180115 
	C495.548157,467.411194 489.797302,476.645203 484.011688,485.857361 
	C474.626953,500.800171 465.204529,515.719421 455.820435,530.662659 
	C452.116791,536.560425 448.473236,542.495911 444.206909,548.646484 
	C443.133972,547.205261 442.255859,545.535767 442.239716,543.857910 
	C442.038116,522.906128 441.961517,501.953156 441.932220,480.538025 
	C442.007996,466.360199 442.035828,452.644623 441.950897,438.929718 
	C441.942627,437.596558 441.237366,436.267731 440.855652,434.936890 
	C440.855652,434.936890 441.009369,434.967285 441.051361,434.684753 
	C440.686005,434.278503 440.278625,434.154816 439.871277,434.031128 
	C439.871277,434.031128 439.967651,434.031097 440.044342,433.736145 
	C439.711517,433.261780 439.302032,433.082367 438.892517,432.902924 
	C426.616974,425.260437 414.308929,417.669556 402.073425,409.963531 
	C383.540314,398.291290 365.057678,386.538910 346.297852,374.209839 
	C347.470642,373.088043 348.896545,372.141113 350.328125,372.132477 
	C367.300293,372.029816 384.273254,372.065430 401.246033,372.068085 
	C450.167084,372.075714 499.088165,372.058136 548.008911,372.192993 
	C549.931458,372.198303 551.850037,373.665039 553.770447,374.450836 
z"/>
<path fill="#FEC3C0" opacity="1.000000" stroke="none" 
	d="
M554.166809,374.222931 
	C551.850037,373.665039 549.931458,372.198303 548.008911,372.192993 
	C499.088165,372.058136 450.167084,372.075714 401.246033,372.068085 
	C384.273254,372.065430 367.300293,372.029816 350.328125,372.132477 
	C348.896545,372.141113 347.470642,373.088043 346.133087,373.931549 
	C344.901184,373.531769 343.578308,372.799438 342.255402,372.067139 
	C342.332642,371.712158 342.409851,371.357147 342.487091,371.002167 
	C343.710876,371.002167 344.934631,371.002197 346.158417,371.002167 
	C414.346405,370.999634 482.534393,370.984344 550.722229,371.074249 
	C552.287659,371.076324 556.269531,369.171783 554.166809,374.222931 
z"/>
<path fill="#C2F3FB" opacity="1.000000" stroke="none" 
	d="
M273.905334,521.215576 
	C274.674805,521.194153 275.622772,521.420532 276.475769,521.839966 
	C290.247192,528.611694 304.006500,535.408020 317.958679,542.487976 
	C313.449371,541.389160 308.506561,540.529358 304.102692,538.500061 
	C295.683716,534.620544 287.531616,530.149414 279.361023,525.752380 
	C277.401459,524.697815 275.803741,522.970886 273.905334,521.215576 
z"/>
<path fill="#FECEC8" opacity="1.000000" stroke="none" 
	d="
M441.852844,481.000458 
	C441.961517,501.953156 442.038116,522.906128 442.239716,543.857910 
	C442.255859,545.535767 443.133972,547.205261 443.928040,548.812622 
	C443.693298,549.930969 443.142059,551.115234 442.590790,552.299561 
	C442.069794,552.191345 441.548767,552.083191 441.027771,551.975037 
	C441.027771,528.632141 441.027771,505.289215 441.271515,481.480896 
	C441.515259,481.015503 441.852844,481.000458 441.852844,481.000458 
z"/>
<path fill="#C2F3FB" opacity="1.000000" stroke="none" 
	d="
M338.073639,548.353333 
	C345.301331,548.783569 352.679749,549.742798 360.087097,550.346741 
	C364.523438,550.708374 369.005066,550.514343 373.961121,550.301758 
	C374.455872,550.033447 374.836304,550.044617 374.836304,550.044617 
	C373.566101,551.040466 372.196045,553.000366 371.041382,552.880615 
	C361.219269,551.863342 351.436279,550.468079 341.641632,549.185303 
	C340.506317,549.036621 339.371552,548.883728 338.073639,548.353333 
z"/>
<path fill="#A8E9F5" opacity="1.000000" stroke="none" 
	d="
M374.917175,549.578003 
	C374.836304,550.044617 374.455872,550.033447 374.265839,550.023193 
	C374.075806,530.812012 374.075806,511.611084 374.075806,492.388031 
	C371.203552,491.830994 369.110046,491.424988 366.645386,491.133514 
	C369.055206,491.248047 371.836151,491.248047 374.998077,491.248047 
	C374.998077,510.606201 374.998077,529.858826 374.917175,549.578003 
z"/>
<path fill="#96DCEF" opacity="1.000000" stroke="none" 
	d="
M392.338074,193.187195 
	C379.739990,193.483215 366.720123,193.681702 353.703583,194.011383 
	C351.077484,194.077896 348.463928,194.641541 345.412781,194.756378 
	C344.980927,194.536789 344.992371,194.152878 344.992371,194.152878 
	C358.610260,190.385468 372.548157,192.665375 386.330933,192.033279 
	C388.172363,191.948822 390.054291,192.746628 392.338074,193.187195 
z"/>
<path fill="#A8E9F5" opacity="1.000000" stroke="none" 
	d="
M257.772766,392.195251 
	C257.240265,391.763580 256.286926,390.947693 256.283081,390.127319 
	C256.224487,377.704346 256.277527,365.280701 256.368744,352.857666 
	C256.372925,352.290314 256.983612,351.727417 257.532166,350.994995 
	C257.519989,361.106323 257.209290,371.384308 257.099365,381.664429 
	C257.063263,385.043060 257.547394,388.427246 257.772766,392.195251 
z"/>
<path fill="#96DCEF" opacity="1.000000" stroke="none" 
	d="
M361.889587,253.783524 
	C364.464813,253.176743 367.494568,252.018326 370.459442,252.165543 
	C377.774597,252.528732 385.059967,253.490952 392.593933,254.461960 
	C382.658569,254.416367 372.486572,254.121185 361.889587,253.783524 
z"/>
<path fill="#A8E9F5" opacity="1.000000" stroke="none" 
	d="
M207.425537,305.660706 
	C204.911865,314.535400 202.233139,323.682678 199.212280,332.920776 
	C201.666916,323.985535 204.463699,314.959412 207.425537,305.660706 
z"/>
<path fill="#A8E9F5" opacity="1.000000" stroke="none" 
	d="
M199.261414,412.946106 
	C200.219894,414.829285 201.226334,417.029968 201.991776,419.311493 
	C204.448212,426.633240 206.815521,433.984924 209.090103,441.713257 
	C205.963989,433.899597 202.935120,425.708405 199.996399,417.484955 
	C199.524292,416.163910 199.454712,414.698975 199.261414,412.946106 
z"/>
<path fill="#FEC3C0" opacity="1.000000" stroke="none" 
	d="
M441.932220,480.538025 
	C441.852844,481.000458 441.515259,481.015503 441.346344,481.018982 
	C441.122528,465.972870 441.067627,450.923309 440.934204,435.405334 
	C441.237366,436.267731 441.942627,437.596558 441.950897,438.929718 
	C442.035828,452.644623 442.007996,466.360199 441.932220,480.538025 
z"/>
<path fill="#A8E9F5" opacity="1.000000" stroke="none" 
	d="
M539.124756,302.300018 
	C535.622009,295.122314 532.119324,287.944611 528.408813,280.497375 
	C531.812317,286.532593 535.423645,292.837372 539.057739,299.815186 
	C539.095215,301.092163 539.109985,301.696075 539.124756,302.300018 
z"/>
<path fill="#A8E9F5" opacity="1.000000" stroke="none" 
	d="
M429.849457,201.003052 
	C421.898407,199.389572 414.028168,197.366272 405.835419,195.306244 
	C414.323120,193.966187 422.013184,197.800232 429.849457,201.003052 
z"/>
<path fill="#C2F3FB" opacity="1.000000" stroke="none" 
	d="
M539.291504,302.816467 
	C539.109985,301.696075 539.095215,301.092163 539.070312,300.186340 
	C540.333252,302.967834 541.606384,306.051239 543.123657,309.725769 
	C533.258850,309.725769 524.719299,309.725769 515.993042,309.308228 
	C523.076782,308.876068 530.347473,308.811157 537.617126,308.873840 
	C540.208984,308.896149 541.490540,308.222809 540.156982,304.997437 
	C540.087158,304.543518 539.943726,304.303711 539.943726,304.303711 
	C539.781921,303.980133 539.620056,303.656525 539.291504,302.816467 
z"/>
<path fill="#B9EFF7" opacity="1.000000" stroke="none" 
	d="
M209.958557,444.356445 
	C212.954849,449.754730 216.005600,455.544922 219.075470,461.716461 
	C216.067398,456.314667 213.040192,450.531494 209.958557,444.356445 
z"/>
<path fill="#A8E9F5" opacity="1.000000" stroke="none" 
	d="
M344.571075,194.070526 
	C344.992371,194.152878 344.980927,194.536789 344.970947,194.728638 
	C338.419922,196.363052 331.878876,197.805603 324.991852,199.205826 
	C331.147186,197.438385 337.648499,195.713272 344.571075,194.070526 
z"/>
<path fill="#B9EFF7" opacity="1.000000" stroke="none" 
	d="
M411.853699,259.201233 
	C415.083862,260.035706 418.498383,261.224274 421.960571,262.774811 
	C418.684845,261.942963 415.361450,260.749146 411.853699,259.201233 
z"/>
<path fill="#A8E9F5" opacity="1.000000" stroke="none" 
	d="
M211.559204,296.296692 
	C210.680389,298.709259 209.489578,301.264862 208.339249,304.092346 
	C209.335571,301.722748 210.291397,299.081238 211.559204,296.296692 
z"/>
<path fill="#A8E9F5" opacity="1.000000" stroke="none" 
	d="
M215.418304,288.408936 
	C214.482712,290.457886 213.290543,292.686157 212.228882,295.185394 
	C213.293488,293.167023 214.227600,290.877625 215.418304,288.408936 
z"/>
<path fill="#B9EFF7" opacity="1.000000" stroke="none" 
	d="
M424.047821,264.396515 
	C426.165833,264.855225 428.434113,265.650482 430.872894,266.762878 
	C428.761627,266.297668 426.479858,265.515381 424.047821,264.396515 
z"/>
<path fill="#A8E9F5" opacity="1.000000" stroke="none" 
	d="
M219.447083,281.355225 
	C218.460129,282.962769 217.215607,284.717285 216.277161,286.827698 
	C217.451996,285.289795 218.320740,283.395996 219.447083,281.355225 
z"/>
<path fill="#A8E9F5" opacity="1.000000" stroke="none" 
	d="
M225.548477,271.275269 
	C225.061005,272.344421 224.300964,273.531738 223.428253,274.905853 
	C223.969040,273.859589 224.622482,272.626526 225.548477,271.275269 
z"/>
<path fill="#B9EFF7" opacity="1.000000" stroke="none" 
	d="
M238.116516,489.100281 
	C239.321411,490.034210 240.414780,491.315186 241.200653,492.834534 
	C239.930435,491.864349 238.967712,490.655823 238.116516,489.100281 
z"/>
<path fill="#A8E9F5" opacity="1.000000" stroke="none" 
	d="
M527.550537,278.434143 
	C526.893066,277.659180 526.080322,276.635803 525.159180,275.343384 
	C525.832275,276.111450 526.613770,277.148560 527.550537,278.434143 
z"/>
<path fill="#A8E9F5" opacity="1.000000" stroke="none" 
	d="
M222.452133,276.379028 
	C221.786865,277.302399 220.894638,278.355682 220.266068,279.770752 
	C221.094879,278.924683 221.660019,277.716797 222.452133,276.379028 
z"/>
<path fill="#B9EFF7" opacity="1.000000" stroke="none" 
	d="
M253.025330,505.418762 
	C253.908691,505.507141 254.897339,505.914734 255.951904,506.700012 
	C255.055420,506.631134 254.093018,506.184570 253.025330,505.418762 
z"/>
<path fill="#A8E9F5" opacity="1.000000" stroke="none" 
	d="
M198.586136,335.237000 
	C198.715195,335.502380 198.631210,335.677429 198.367157,335.746399 
	C198.222031,335.534363 198.284027,335.369843 198.586136,335.237000 
z"/>
<path fill="#A8E9F5" opacity="1.000000" stroke="none" 
	d="
M227.667252,268.172668 
	C227.478912,268.565521 227.051559,269.031158 226.438934,269.646790 
	C226.645203,269.279694 227.036713,268.762573 227.667252,268.172668 
z"/>
<path fill="#A8E9F5" opacity="1.000000" stroke="none" 
	d="
M524.715332,273.602539 
	C524.304504,273.403870 523.856567,272.954071 523.277100,272.307800 
	C523.656372,272.524689 524.167297,272.938049 524.715332,273.602539 
z"/>
<path fill="#B9EFF7" opacity="1.000000" stroke="none" 
	d="
M256.048065,507.130249 
	C256.388977,507.409821 256.822571,507.940643 257.475952,508.606689 
	C257.177399,508.288452 256.659058,507.834991 256.048065,507.130249 
z"/>
<path fill="#B9EFF7" opacity="1.000000" stroke="none" 
	d="
M422.001648,263.348633 
	C422.581451,263.153351 423.273224,263.268555 423.980316,263.761169 
	C423.368286,263.978790 422.740967,263.818970 422.001648,263.348633 
z"/>
<path fill="#A8E9F5" opacity="1.000000" stroke="none" 
	d="
M208.936386,442.309418 
	C209.268204,442.458221 209.664627,442.930389 210.027496,443.746155 
	C209.662964,443.604095 209.331970,443.118439 208.936386,442.309418 
z"/>
<path fill="#B9EFF7" opacity="1.000000" stroke="none" 
	d="
M243.953674,496.312897 
	C244.305283,496.154449 244.734116,496.263428 245.061859,496.749573 
	C244.650787,496.944580 244.340836,496.762451 243.953674,496.312897 
z"/>
<path fill="#B9EFF7" opacity="1.000000" stroke="none" 
	d="
M251.946808,504.315186 
	C252.331604,504.148651 252.785004,504.250458 253.089813,504.733734 
	C252.632614,504.937988 252.324005,504.760773 251.946808,504.315186 
z"/>
<path fill="#B9EFF7" opacity="1.000000" stroke="none" 
	d="
M250.956787,503.302795 
	C251.299774,503.154297 251.726562,503.269623 252.056366,503.755005 
	C251.653137,503.938904 251.346848,503.752747 250.956787,503.302795 
z"/>
<path fill="#B9EFF7" opacity="1.000000" stroke="none" 
	d="
M249.953857,502.309143 
	C250.310760,502.152832 250.746109,502.262939 251.069733,502.749084 
	C250.649445,502.941956 250.340881,502.758759 249.953857,502.309143 
z"/>
<path fill="#B9EFF7" opacity="1.000000" stroke="none" 
	d="
M248.951706,501.301086 
	C249.309250,501.151825 249.744141,501.270813 250.068008,501.757111 
	C249.647675,501.939423 249.338364,501.754364 248.951706,501.301086 
z"/>
<path fill="#B9EFF7" opacity="1.000000" stroke="none" 
	d="
M247.952759,500.302521 
	C248.294418,500.153656 248.714478,500.274323 249.050781,500.760284 
	C248.655075,500.941071 248.343109,500.756531 247.952759,500.302521 
z"/>
<path fill="#B9EFF7" opacity="1.000000" stroke="none" 
	d="
M246.952744,499.303406 
	C247.293976,499.154358 247.713989,499.274536 248.050537,499.760193 
	C247.655228,499.941345 247.343384,499.756958 246.952744,499.303406 
z"/>
<path fill="#B9EFF7" opacity="1.000000" stroke="none" 
	d="
M245.951477,498.303009 
	C246.297791,498.152710 246.720612,498.272644 247.054123,498.759033 
	C246.652542,498.941437 246.340271,498.757355 245.951477,498.303009 
z"/>
<path fill="#B9EFF7" opacity="1.000000" stroke="none" 
	d="
M244.954987,497.302734 
	C245.284592,497.156952 245.697937,497.278168 246.041183,497.763306 
	C245.660309,497.941376 245.349533,497.755554 244.954987,497.302734 
z"/>
<path fill="#B9EFF7" opacity="1.000000" stroke="none" 
	d="
M431.121460,267.138733 
	C431.011932,267.188324 430.910980,267.448517 430.914642,267.707245 
	C430.916168,267.813232 431.143646,267.916016 431.596832,267.816193 
	C431.925354,267.612122 431.475647,267.685699 431.475647,267.685699 
	C431.475647,267.685699 431.172180,267.348724 431.121460,267.138733 
z"/>
<path fill="#B9EFF7" opacity="1.000000" stroke="none" 
	d="
M242.952316,495.311096 
	C243.314133,495.152100 243.752777,495.259766 244.073090,495.745544 
	C243.646225,495.941711 243.337677,495.759735 242.952316,495.311096 
z"/>
<path fill="#B9EFF7" opacity="1.000000" stroke="none" 
	d="
M241.957916,494.309998 
	C242.310135,494.155273 242.742340,494.264923 243.066071,494.750122 
	C242.651031,494.941925 242.344467,494.758179 241.957916,494.309998 
z"/>
<path fill="#B9EFF7" opacity="1.000000" stroke="none" 
	d="
M240.953308,493.326843 
	C241.333588,493.154510 241.782623,493.249847 242.090912,493.732605 
	C241.640823,493.944855 241.331436,493.769684 240.953308,493.326843 
z"/>
<path fill="#A8E9F5" opacity="1.000000" stroke="none" 
	d="
M198.644135,332.994049 
	C199.064911,333.146271 199.179138,333.389557 199.230896,334.031982 
	C198.891464,333.982483 198.614517,333.533783 198.644135,332.994049 
z"/>
<path fill="#FEC3C0" opacity="1.000000" stroke="none" 
	d="
M439.951965,434.302063 
	C440.278625,434.154816 440.686005,434.278503 441.036377,434.761658 
	C440.663818,434.938416 440.348236,434.755707 439.951965,434.302063 
z"/>
<path fill="#FEC3C0" opacity="1.000000" stroke="none" 
	d="
M438.945007,433.199219 
	C439.302032,433.082367 439.711517,433.261780 440.043976,433.784363 
	C439.643768,433.916840 439.320618,433.706177 438.945007,433.199219 
z"/>
<path fill="#A8E9F5" opacity="1.000000" stroke="none" 
	d="
M228.627319,267.270782 
	C228.759933,267.319305 228.481735,267.022797 228.485504,266.931396 
	C228.489288,266.839996 228.243973,267.043945 228.243973,267.043945 
	C228.243973,267.043945 228.494690,267.222260 228.627319,267.270782 
z"/>
<path fill="#A8E9F5" opacity="1.000000" stroke="none" 
	d="
M539.881470,304.376526 
	C539.943726,304.303711 540.087158,304.543518 540.075684,304.614441 
	C540.064270,304.685333 539.819153,304.449310 539.881470,304.376526 
z"/>
</svg>