<svg version="1.1" id="Layer_1" xmlns="http://www.w3.org/2000/svg" xmlns:xlink="http://www.w3.org/1999/xlink" x="0px" y="0px"
	 width="100%" viewBox="0 0 1200 1200" enable-background="new 0 0 1200 1200" xml:space="preserve">
<path fill="#FFE5D1" opacity="1.000000" stroke="none" 
	d="
M1085.000000,1201.000000 
	C723.333313,1201.000000 362.166656,1201.000000 1.000000,1201.000000 
	C1.000000,801.000000 1.000000,401.000000 1.000000,1.000000 
	C401.000000,1.000000 801.000000,1.000000 1201.000000,1.000000 
	C1201.000000,401.000000 1201.000000,801.000000 1201.000000,1201.000000 
	C1162.500000,1201.000000 1124.000000,1201.000000 1085.000000,1201.000000 
M698.010681,599.510559 
	C709.662964,611.831238 721.354431,624.115173 732.953430,636.485840 
	C740.338806,644.362549 747.623535,652.334839 754.884094,660.327209 
	C759.628723,665.550171 764.139954,670.388367 772.501770,669.234070 
	C776.765564,668.645447 778.082214,667.827087 778.052246,663.458862 
	C777.863464,635.976868 777.956726,608.493042 777.956726,581.009766 
	C777.956726,568.826538 777.955139,569.009094 765.946838,568.899109 
	C761.845215,568.861572 760.920959,570.291321 760.947693,574.097046 
	C761.097412,595.416382 761.019714,616.737244 761.019592,638.057617 
	C761.019531,639.772644 761.019592,641.487732 761.019592,643.953064 
	C759.612915,642.883728 759.036987,642.556824 758.599915,642.097656 
	C745.414429,628.247559 732.203308,614.421509 719.083557,600.509399 
	C711.218933,592.169739 703.288513,583.875305 695.799316,575.205017 
	C691.620117,570.366760 687.006592,568.569702 680.631042,568.789490 
	C675.756958,568.957642 674.941406,570.631897 674.966309,574.937561 
	C675.125183,602.419922 675.047180,629.903625 675.047180,657.386902 
	C675.047180,669.152039 675.048401,668.995789 686.954956,669.088623 
	C690.877197,669.119202 692.101135,667.989441 692.068298,664.006531 
	C691.890930,642.521118 691.979370,621.033386 691.995544,599.546509 
	C691.996704,597.979004 692.151062,596.411621 692.234131,594.844238 
	C692.791626,594.450256 693.349121,594.056274 693.906616,593.662292 
	C695.108765,595.444397 696.310913,597.226501 698.010681,599.510559 
M891.238831,610.345947 
	C887.784485,586.543945 868.954895,570.393188 845.621948,569.157043 
	C831.017212,568.383240 816.337158,569.119568 801.694275,568.921875 
	C797.887085,568.870483 796.916626,570.176025 796.931458,573.819031 
	C797.054382,603.941467 797.084412,634.065247 796.906006,664.187195 
	C796.880859,668.435730 798.558350,669.105957 802.199646,669.062195 
	C815.345398,668.903992 828.494141,669.012451 841.641785,668.997314 
	C872.389893,668.961975 895.963257,641.628723 891.238831,610.345947 
M498.910278,572.489136 
	C486.868622,567.508789 474.561707,566.333923 461.908142,569.851135 
	C436.548828,576.899963 420.184204,600.525330 424.334503,627.825745 
	C428.872162,657.674133 453.764221,673.080017 482.375214,669.723450 
	C508.453857,666.663879 530.783020,642.359436 527.146545,612.552063 
	C524.904236,594.172119 516.091125,580.997009 498.910278,572.489136 
M331.115234,599.774414 
	C342.823151,582.631470 363.255493,577.728271 380.054199,588.009094 
	C382.585083,589.558044 385.484314,592.535583 387.665253,592.101257 
	C390.274261,591.581665 392.295563,588.106323 394.568268,585.907898 
	C394.927368,585.560486 395.575745,585.189819 395.568512,584.840759 
	C395.533783,583.167419 395.984161,580.785400 395.070312,579.932922 
	C379.100220,565.035095 348.804382,563.949768 331.116425,577.429626 
	C313.484375,590.866882 306.228455,608.498901 310.183258,630.366272 
	C312.097595,640.951233 316.944092,650.337158 325.181305,657.355591 
	C347.029480,675.970947 381.227753,674.626526 400.532806,651.991516 
	C407.430603,643.903931 411.710419,634.733337 412.901611,624.192993 
	C413.161163,621.896301 413.846558,618.959534 409.676697,618.980347 
	C394.515442,619.056030 379.352631,618.944458 364.194000,619.156799 
	C363.125153,619.171753 361.461884,621.100281 361.170135,622.387207 
	C360.666962,624.606445 361.187347,627.035217 360.983429,629.350159 
	C360.682770,632.763855 361.881287,634.148438 365.470215,634.004822 
	C371.458618,633.765320 377.463654,633.940491 383.461670,633.940857 
	C386.497009,633.941101 389.532379,633.940857 392.905273,633.940857 
	C385.006836,655.452087 354.223267,662.033813 338.092285,646.620361 
	C325.130371,634.234985 322.483459,617.510193 331.115234,599.774414 
M534.744751,568.999939 
	C533.013428,569.083130 531.282104,569.166260 529.115417,569.270386 
	C529.605286,570.701782 529.816833,571.478516 530.129822,572.211914 
	C542.788025,601.873596 555.743347,631.414246 567.910278,661.276001 
	C570.791809,668.348083 574.870728,669.622131 581.407776,669.128601 
	C584.726624,668.877930 586.678955,668.342407 588.131409,664.902832 
	C601.065735,634.273132 614.244080,603.746460 627.295654,573.166138 
	C627.753967,572.092407 627.640808,570.774780 627.866577,568.999939 
	C623.913513,568.999939 620.594543,569.214600 617.316589,568.939575 
	C614.034485,568.664307 612.288513,569.715820 610.976501,572.907959 
	C602.129272,594.432861 593.072144,615.871582 584.063232,637.329895 
	C582.490112,641.076904 580.824341,644.785156 578.958862,649.068054 
	C578.295837,647.854065 578.028809,647.453735 577.846130,647.018005 
	C567.949646,623.407043 558.021912,599.809021 548.193481,576.169739 
	C545.234558,569.052917 545.362000,568.999939 534.744751,568.999939 
M656.981262,665.240662 
	C656.982361,637.096252 656.983643,608.951904 656.984558,580.807495 
	C656.984985,568.889709 656.982117,569.069153 645.284058,568.904480 
	C641.085754,568.845398 639.940247,570.183777 639.964172,574.292725 
	C640.124268,601.770081 640.047241,629.248718 640.047180,656.726990 
	C640.047180,670.425720 640.047180,670.425537 653.789612,668.988342 
	C654.284790,668.936584 655.001953,669.086121 655.235168,668.814758 
	C655.915527,668.023376 656.402649,667.065979 656.981262,665.240662 
M514.892944,701.998474 
	C516.128723,705.289978 517.364441,708.581543 518.600220,711.873047 
	C519.015503,711.822388 519.430725,711.771729 519.846008,711.721069 
	C522.387207,705.221375 524.928467,698.721680 527.469238,692.223145 
	C526.650269,692.223145 525.230652,692.223145 524.443542,692.223145 
	C523.028320,696.869385 521.729187,701.134521 520.001343,706.807068 
	C517.827637,700.954346 516.218323,696.621399 514.609009,692.288391 
	C514.169250,692.322083 513.729492,692.355774 513.289795,692.389465 
	C511.746429,696.637207 510.203094,700.884888 508.659760,705.132568 
	C508.334595,705.169006 508.009430,705.205383 507.684265,705.241760 
	C506.562256,700.907227 505.440247,696.572754 504.245941,691.959106 
	C502.935242,692.070679 501.265381,692.212769 499.784363,692.338806 
	C501.234772,696.083984 502.523468,699.271851 503.703796,702.499451 
	C504.839355,705.604736 505.862640,708.751038 506.935272,711.879395 
	C507.463409,711.806885 507.991547,711.734375 508.519684,711.661865 
	C509.677063,708.273315 510.848358,704.889465 511.987061,701.494690 
	C512.764160,699.177856 513.634155,699.191101 514.892944,701.998474 
M451.051453,698.733154 
	C451.051453,702.980774 451.051453,707.228455 451.051453,711.767883 
	C456.795807,712.119812 462.941345,713.375122 467.043091,707.304871 
	C469.490448,703.682922 469.690125,699.768494 466.980591,696.173279 
	C462.766815,690.581970 456.763855,692.074951 451.051575,692.181335 
	C451.051575,694.257874 451.051575,696.039368 451.051453,698.733154 
M648.995361,696.988892 
	C648.995361,701.866760 648.995361,706.744629 648.995361,712.005920 
	C651.719971,712.005920 655.349365,711.953674 658.976685,712.018982 
	C663.597717,712.102234 663.573730,709.850769 661.697021,705.651489 
	C660.425720,710.892517 657.168640,711.883484 653.505554,710.561279 
	C652.524170,710.206970 651.550964,706.517395 652.237000,705.592651 
	C653.417786,704.001099 655.904175,703.378052 658.568970,701.962708 
	C658.568970,701.735901 658.568970,700.228210 658.568970,699.638672 
	C656.339966,699.851135 654.428223,700.033386 652.516479,700.215576 
	C652.595032,698.154541 652.673645,696.093567 652.752197,694.032593 
	C655.633484,694.354736 658.514832,694.676880 661.446350,695.004639 
	C661.968567,691.489319 660.033569,690.920593 648.185547,692.387268 
	C648.454041,693.634766 648.723450,694.886230 648.995361,696.988892 
M698.037476,712.004089 
	C700.192566,711.996216 702.359619,712.131592 704.500305,711.952271 
	C709.825623,711.506165 713.824646,707.330261 713.971252,702.241150 
	C714.129211,696.761292 710.364502,692.560120 704.589844,692.070862 
	C701.816345,691.835754 699.006470,692.030334 697.259644,692.030334 
	C696.795593,698.175293 696.308594,703.943298 695.988281,709.720520 
	C695.947876,710.449219 696.783569,711.226440 698.037476,712.004089 
M614.402222,694.255493 
	C614.564575,692.010925 614.564575,692.010925 612.263367,692.286621 
	C610.688782,697.116394 609.291260,701.403137 607.893738,705.689880 
	C607.330688,705.710632 606.767639,705.731445 606.204590,705.752197 
	C604.584534,701.317017 602.964417,696.881836 601.193542,692.033936 
	C600.447021,692.091125 599.022278,692.200195 597.005310,692.354614 
	C600.223206,699.218201 603.205933,705.580078 606.724976,713.085999 
	C609.603271,705.924011 611.826660,700.391602 614.402222,694.255493 
M747.873718,706.771851 
	C747.475342,708.331116 747.077026,709.890381 746.620422,711.677734 
	C748.349854,711.677734 749.727966,711.677734 751.227295,711.677734 
	C751.227295,705.111633 751.227295,698.865417 751.227295,692.396179 
	C749.732971,692.396179 748.227234,692.396179 747.959900,692.396179 
	C747.959900,697.159119 747.959900,701.536560 747.873718,706.771851 
M562.481934,712.006958 
	C563.271118,711.958069 564.060303,711.909180 564.543457,711.879272 
	C564.543457,705.166077 564.543457,698.762512 564.543457,692.352905 
	C563.130005,692.352905 561.415100,692.352905 560.305115,692.352905 
	C560.305115,698.514160 560.260071,704.323181 560.369507,710.129211 
	C560.381470,710.762695 561.283691,711.379395 562.481934,712.006958 
z"/>
<path fill="#FFFFFE" opacity="1.000000" stroke="none" 
	d="
M697.761902,599.259583 
	C696.310913,597.226501 695.108765,595.444397 693.906616,593.662292 
	C693.349121,594.056274 692.791626,594.450256 692.234131,594.844238 
	C692.151062,596.411621 691.996704,597.979004 691.995544,599.546509 
	C691.979370,621.033386 691.890930,642.521118 692.068298,664.006531 
	C692.101135,667.989441 690.877197,669.119202 686.954956,669.088623 
	C675.048401,668.995789 675.047180,669.152039 675.047180,657.386902 
	C675.047180,629.903625 675.125183,602.419922 674.966309,574.937561 
	C674.941406,570.631897 675.756958,568.957642 680.631042,568.789490 
	C687.006592,568.569702 691.620117,570.366760 695.799316,575.205017 
	C703.288513,583.875305 711.218933,592.169739 719.083557,600.509399 
	C732.203308,614.421509 745.414429,628.247559 758.599915,642.097656 
	C759.036987,642.556824 759.612915,642.883728 761.019592,643.953064 
	C761.019592,641.487732 761.019531,639.772644 761.019592,638.057617 
	C761.019714,616.737244 761.097412,595.416382 760.947693,574.097046 
	C760.920959,570.291321 761.845215,568.861572 765.946838,568.899109 
	C777.955139,569.009094 777.956726,568.826538 777.956726,581.009766 
	C777.956726,608.493042 777.863464,635.976868 778.052246,663.458862 
	C778.082214,667.827087 776.765564,668.645447 772.501770,669.234070 
	C764.139954,670.388367 759.628723,665.550171 754.884094,660.327209 
	C747.623535,652.334839 740.338806,644.362549 732.953430,636.485840 
	C721.354431,624.115173 709.662964,611.831238 697.761902,599.259583 
z"/>
<path fill="#FFFFFE" opacity="1.000000" stroke="none" 
	d="
M891.375183,610.766602 
	C895.963257,641.628723 872.389893,668.961975 841.641785,668.997314 
	C828.494141,669.012451 815.345398,668.903992 802.199646,669.062195 
	C798.558350,669.105957 796.880859,668.435730 796.906006,664.187195 
	C797.084412,634.065247 797.054382,603.941467 796.931458,573.819031 
	C796.916626,570.176025 797.887085,568.870483 801.694275,568.921875 
	C816.337158,569.119568 831.017212,568.383240 845.621948,569.157043 
	C868.954895,570.393188 887.784485,586.543945 891.375183,610.766602 
M819.613892,583.022278 
	C816.572754,583.242371 812.863159,581.674377 812.928711,587.452637 
	C813.168457,608.595398 813.061829,629.742676 812.980896,650.887878 
	C812.969666,653.825195 813.832214,655.085571 816.955933,655.027588 
	C825.278076,654.873169 833.643494,655.472717 841.920044,654.838379 
	C852.109131,654.057495 861.264465,650.592834 867.778076,641.906006 
	C874.655212,632.734314 877.179138,622.566223 874.820007,611.456238 
	C872.163513,598.945862 865.214722,589.775330 852.742798,585.370605 
	C842.221191,581.654663 831.330383,583.463318 819.613892,583.022278 
z"/>
<path fill="#FFFFFE" opacity="1.000000" stroke="none" 
	d="
M499.249451,572.660522 
	C516.091125,580.997009 524.904236,594.172119 527.146545,612.552063 
	C530.783020,642.359436 508.453857,666.663879 482.375214,669.723450 
	C453.764221,673.080017 428.872162,657.674133 424.334503,627.825745 
	C420.184204,600.525330 436.548828,576.899963 461.908142,569.851135 
	C474.561707,566.333923 486.868622,567.508789 499.249451,572.660522 
M441.927734,608.713501 
	C441.604065,612.828552 440.967865,616.946655 441.008972,621.058044 
	C441.226776,642.856873 459.783173,659.047485 483.116394,654.543274 
	C499.456757,651.388977 508.449951,639.804443 510.510223,623.562134 
	C512.285095,609.569641 507.605286,597.520386 495.993530,589.078491 
	C478.678589,576.490295 449.680817,582.421814 441.927734,608.713501 
z"/>
<path fill="#FFFFFE" opacity="1.000000" stroke="none" 
	d="
M330.949280,600.105835 
	C322.483459,617.510193 325.130371,634.234985 338.092285,646.620361 
	C354.223267,662.033813 385.006836,655.452087 392.905273,633.940857 
	C389.532379,633.940857 386.497009,633.941101 383.461670,633.940857 
	C377.463654,633.940491 371.458618,633.765320 365.470215,634.004822 
	C361.881287,634.148438 360.682770,632.763855 360.983429,629.350159 
	C361.187347,627.035217 360.666962,624.606445 361.170135,622.387207 
	C361.461884,621.100281 363.125153,619.171753 364.194000,619.156799 
	C379.352631,618.944458 394.515442,619.056030 409.676697,618.980347 
	C413.846558,618.959534 413.161163,621.896301 412.901611,624.192993 
	C411.710419,634.733337 407.430603,643.903931 400.532806,651.991516 
	C381.227753,674.626526 347.029480,675.970947 325.181305,657.355591 
	C316.944092,650.337158 312.097595,640.951233 310.183258,630.366272 
	C306.228455,608.498901 313.484375,590.866882 331.116425,577.429626 
	C348.804382,563.949768 379.100220,565.035095 395.070312,579.932922 
	C395.984161,580.785400 395.533783,583.167419 395.568512,584.840759 
	C395.575745,585.189819 394.927368,585.560486 394.568268,585.907898 
	C392.295563,588.106323 390.274261,591.581665 387.665253,592.101257 
	C385.484314,592.535583 382.585083,589.558044 380.054199,588.009094 
	C363.255493,577.728271 342.823151,582.631470 330.949280,600.105835 
z"/>
<path fill="#FFFFFE" opacity="1.000000" stroke="none" 
	d="
M535.203674,568.999939 
	C545.362000,568.999939 545.234558,569.052917 548.193481,576.169739 
	C558.021912,599.809021 567.949646,623.407043 577.846130,647.018005 
	C578.028809,647.453735 578.295837,647.854065 578.958862,649.068054 
	C580.824341,644.785156 582.490112,641.076904 584.063232,637.329895 
	C593.072144,615.871582 602.129272,594.432861 610.976501,572.907959 
	C612.288513,569.715820 614.034485,568.664307 617.316589,568.939575 
	C620.594543,569.214600 623.913513,568.999939 627.866577,568.999939 
	C627.640808,570.774780 627.753967,572.092407 627.295654,573.166138 
	C614.244080,603.746460 601.065735,634.273132 588.131409,664.902832 
	C586.678955,668.342407 584.726624,668.877930 581.407776,669.128601 
	C574.870728,669.622131 570.791809,668.348083 567.910278,661.276001 
	C555.743347,631.414246 542.788025,601.873596 530.129822,572.211914 
	C529.816833,571.478516 529.605286,570.701782 529.115417,569.270386 
	C531.282104,569.166260 533.013428,569.083130 535.203674,568.999939 
z"/>
<path fill="#FFFFFE" opacity="1.000000" stroke="none" 
	d="
M656.973389,665.707153 
	C656.402649,667.065979 655.915527,668.023376 655.235168,668.814758 
	C655.001953,669.086121 654.284790,668.936584 653.789612,668.988342 
	C640.047180,670.425537 640.047180,670.425720 640.047180,656.726990 
	C640.047241,629.248718 640.124268,601.770081 639.964172,574.292725 
	C639.940247,570.183777 641.085754,568.845398 645.284058,568.904480 
	C656.982117,569.069153 656.984985,568.889709 656.984558,580.807495 
	C656.983643,608.951904 656.982361,637.096252 656.973389,665.707153 
z"/>
<path fill="#FFFCF9" opacity="1.000000" stroke="none" 
	d="
M514.771484,701.668945 
	C513.634155,699.191101 512.764160,699.177856 511.987061,701.494690 
	C510.848358,704.889465 509.677063,708.273315 508.519684,711.661865 
	C507.991547,711.734375 507.463409,711.806885 506.935272,711.879395 
	C505.862640,708.751038 504.839355,705.604736 503.703796,702.499451 
	C502.523468,699.271851 501.234772,696.083984 499.784363,692.338806 
	C501.265381,692.212769 502.935242,692.070679 504.245941,691.959106 
	C505.440247,696.572754 506.562256,700.907227 507.684265,705.241760 
	C508.009430,705.205383 508.334595,705.169006 508.659760,705.132568 
	C510.203094,700.884888 511.746429,696.637207 513.289795,692.389465 
	C513.729492,692.355774 514.169250,692.322083 514.609009,692.288391 
	C516.218323,696.621399 517.827637,700.954346 520.001343,706.807068 
	C521.729187,701.134521 523.028320,696.869385 524.443542,692.223145 
	C525.230652,692.223145 526.650269,692.223145 527.469238,692.223145 
	C524.928467,698.721680 522.387207,705.221375 519.846008,711.721069 
	C519.430725,711.771729 519.015503,711.822388 518.600220,711.873047 
	C517.364441,708.581543 516.128723,705.289978 514.771484,701.668945 
z"/>
<path fill="#FFFFFE" opacity="1.000000" stroke="none" 
	d="
M451.051514,698.276978 
	C451.051575,696.039368 451.051575,694.257874 451.051575,692.181335 
	C456.763855,692.074951 462.766815,690.581970 466.980591,696.173279 
	C469.690125,699.768494 469.490448,703.682922 467.043091,707.304871 
	C462.941345,713.375122 456.795807,712.119812 451.051453,711.767883 
	C451.051453,707.228455 451.051453,702.980774 451.051514,698.276978 
M464.029907,696.602051 
	C463.010345,695.778809 462.102020,694.723450 460.952026,694.172485 
	C455.950867,691.776550 454.067932,693.032654 454.018951,698.667725 
	C453.993011,701.649292 454.134918,704.637085 453.988831,707.611572 
	C453.835083,710.743103 455.617981,711.214661 458.086487,710.947876 
	C464.250214,710.281677 466.987122,704.401855 464.029907,696.602051 
z"/>
<path fill="#FFFCF9" opacity="1.000000" stroke="none" 
	d="
M648.994080,696.563354 
	C648.723450,694.886230 648.454041,693.634766 648.185547,692.387268 
	C660.033569,690.920593 661.968567,691.489319 661.446350,695.004639 
	C658.514832,694.676880 655.633484,694.354736 652.752197,694.032593 
	C652.673645,696.093567 652.595032,698.154541 652.516479,700.215576 
	C654.428223,700.033386 656.339966,699.851135 658.568970,699.638672 
	C658.568970,700.228210 658.568970,701.735901 658.568970,701.962708 
	C655.904175,703.378052 653.417786,704.001099 652.237000,705.592651 
	C651.550964,706.517395 652.524170,710.206970 653.505554,710.561279 
	C657.168640,711.883484 660.425720,710.892517 661.697021,705.651489 
	C663.573730,709.850769 663.597717,712.102234 658.976685,712.018982 
	C655.349365,711.953674 651.719971,712.005920 648.995361,712.005920 
	C648.995361,706.744629 648.995361,701.866760 648.994080,696.563354 
z"/>
<path fill="#FFFCF9" opacity="1.000000" stroke="none" 
	d="
M697.625427,711.992676 
	C696.783569,711.226440 695.947876,710.449219 695.988281,709.720520 
	C696.308594,703.943298 696.795593,698.175293 697.259644,692.030334 
	C699.006470,692.030334 701.816345,691.835754 704.589844,692.070862 
	C710.364502,692.560120 714.129211,696.761292 713.971252,702.241150 
	C713.824646,707.330261 709.825623,711.506165 704.500305,711.952271 
	C702.359619,712.131592 700.192566,711.996216 697.625427,711.992676 
M699.507263,694.425537 
	C699.352417,698.715698 699.291443,703.011963 699.014832,707.294250 
	C698.767578,711.123108 701.067261,711.343811 703.800903,710.828979 
	C708.341248,709.973755 711.751282,704.800659 710.862488,700.320435 
	C709.880188,695.368774 705.478271,692.710571 699.507263,694.425537 
z"/>
<path fill="#FFFCF9" opacity="1.000000" stroke="none" 
	d="
M614.226135,694.557373 
	C611.826660,700.391602 609.603271,705.924011 606.724976,713.085999 
	C603.205933,705.580078 600.223206,699.218201 597.005310,692.354614 
	C599.022278,692.200195 600.447021,692.091125 601.193542,692.033936 
	C602.964417,696.881836 604.584534,701.317017 606.204590,705.752197 
	C606.767639,705.731445 607.330688,705.710632 607.893738,705.689880 
	C609.291260,701.403137 610.688782,697.116394 612.263367,692.286621 
	C614.564575,692.010925 614.564575,692.010925 614.226135,694.557373 
z"/>
<path fill="#FFFCF9" opacity="1.000000" stroke="none" 
	d="
M747.916809,706.342896 
	C747.959900,701.536560 747.959900,697.159119 747.959900,692.396179 
	C748.227234,692.396179 749.732971,692.396179 751.227295,692.396179 
	C751.227295,698.865417 751.227295,705.111633 751.227295,711.677734 
	C749.727966,711.677734 748.349854,711.677734 746.620422,711.677734 
	C747.077026,709.890381 747.475342,708.331116 747.916809,706.342896 
z"/>
<path fill="#FFFCF9" opacity="1.000000" stroke="none" 
	d="
M562.127441,712.005371 
	C561.283691,711.379395 560.381470,710.762695 560.369507,710.129211 
	C560.260071,704.323181 560.305115,698.514160 560.305115,692.352905 
	C561.415100,692.352905 563.130005,692.352905 564.543457,692.352905 
	C564.543457,698.762512 564.543457,705.166077 564.543457,711.879272 
	C564.060303,711.909180 563.271118,711.958069 562.127441,712.005371 
z"/>
<path fill="#FFE5D2" opacity="1.000000" stroke="none" 
	d="
M820.101257,583.022339 
	C831.330383,583.463318 842.221191,581.654663 852.742798,585.370605 
	C865.214722,589.775330 872.163513,598.945862 874.820007,611.456238 
	C877.179138,622.566223 874.655212,632.734314 867.778076,641.906006 
	C861.264465,650.592834 852.109131,654.057495 841.920044,654.838379 
	C833.643494,655.472717 825.278076,654.873169 816.955933,655.027588 
	C813.832214,655.085571 812.969666,653.825195 812.980896,650.887878 
	C813.061829,629.742676 813.168457,608.595398 812.928711,587.452637 
	C812.863159,581.674377 816.572754,583.242371 820.101257,583.022339 
z"/>
<path fill="#FFE5D1" opacity="1.000000" stroke="none" 
	d="
M442.031128,608.314148 
	C449.680817,582.421814 478.678589,576.490295 495.993530,589.078491 
	C507.605286,597.520386 512.285095,609.569641 510.510223,623.562134 
	C508.449951,639.804443 499.456757,651.388977 483.116394,654.543274 
	C459.783173,659.047485 441.226776,642.856873 441.008972,621.058044 
	C440.967865,616.946655 441.604065,612.828552 442.031128,608.314148 
z"/>
<path fill="#FFE5D2" opacity="1.000000" stroke="none" 
	d="
M464.257263,696.914429 
	C466.987122,704.401855 464.250214,710.281677 458.086487,710.947876 
	C455.617981,711.214661 453.835083,710.743103 453.988831,707.611572 
	C454.134918,704.637085 453.993011,701.649292 454.018951,698.667725 
	C454.067932,693.032654 455.950867,691.776550 460.952026,694.172485 
	C462.102020,694.723450 463.010345,695.778809 464.257263,696.914429 
z"/>
<path fill="#FFE5D2" opacity="1.000000" stroke="none" 
	d="
M699.769653,694.102783 
	C705.478271,692.710571 709.880188,695.368774 710.862488,700.320435 
	C711.751282,704.800659 708.341248,709.973755 703.800903,710.828979 
	C701.067261,711.343811 698.767578,711.123108 699.014832,707.294250 
	C699.291443,703.011963 699.352417,698.715698 699.769653,694.102783 
z"/>
</svg>